<svg width="25" height="25" viewBox="0 0 25 25" fill="none" xmlns="http://www.w3.org/2000/svg">
<path d="M10.4976 22.5118C8.95212 20.9663 8.15749 18.9715 8.05189 16.9481L2.48822 22.5118C-0.829406 19.1942 -0.829406 13.8153 2.48822 10.4976C4.03374 8.95212 6.02851 8.15749 8.05189 8.05189L2.48822 2.48822C5.80585 -0.829406 11.1847 -0.829406 14.5024 2.48822C16.0479 4.03374 16.8425 6.02851 16.9481 8.05189L22.5118 2.48822C25.8294 5.80585 25.8294 11.1847 22.5118 14.5024C20.9663 16.0479 18.9715 16.8425 16.9481 16.9481L22.5118 22.5118C19.1942 25.8294 13.8153 25.8294 10.4976 22.5118ZM14.5023 10.4976C13.3964 9.39173 11.6034 9.39185 10.4976 10.4976C9.39172 11.6036 9.39172 13.3964 10.4976 14.5024C11.6036 15.6083 13.3964 15.6083 14.5023 14.5024C15.6081 13.3966 15.6083 11.6036 14.5023 10.4976Z" fill="url(#paint0_linear)"/>
<defs>
<linearGradient id="paint0_linear" x1="12.5" y1="0" x2="12.5" y2="25" gradientUnits="userSpaceOnUse">
<stop stop-color="#00AF2C"/>
<stop offset="1" stop-color="#009C27"/>
</linearGradient>
</defs>
</svg>
