<svg width="24" height="24" viewBox="0 0 24 24" fill="none" xmlns="http://www.w3.org/2000/svg">
<path d="M23.5 0H0.500016C0.223641 0 0 0.223641 0 0.500016V2.50003C0 2.77636 0.223641 3 0.500016 3H1.00003V23.5C0.999984 23.7764 1.22362 24 1.5 24C2.16455 24 2.50392 23.6123 2.75194 23.3296C2.97019 23.0805 3.05709 23 3.25242 23C3.44723 23 3.53414 23.0806 3.75244 23.3296C4.0005 23.6123 4.33983 24 5.00489 24C5.66944 24 6.02245 23.5962 6.25636 23.3291C6.47362 23.0805 6.56058 23 6.75441 23C6.9473 23 7.03369 23.0805 7.251 23.3291C7.48392 23.5962 7.83647 24 8.50003 24C8.67338 24 8.83402 23.9101 8.92533 23.7627C9.01664 23.6152 9.02494 23.4311 8.94731 23.2763L5.55366 16.4892C5.80345 16.4612 6 16.2573 6 16C6 15.7237 5.77636 15.5 5.49998 15.5C5.44969 15.5 5.39391 15.4962 5.34216 15.4954C7.05469 14.1449 8.24517 12.1969 8.63672 10.042L9.91706 3H14.0829L15.3633 10.042C15.7548 12.197 16.9454 14.1451 18.6577 15.4951C18.6052 15.4959 18.5521 15.4999 18.5 15.5C18.2236 15.5 18 15.7241 18 16C18 16.2567 18.196 16.4601 18.4447 16.4888L15.0508 23.2582C15.0054 23.3486 14.9908 23.4687 15.0049 23.5688C15.0391 23.8159 15.2505 24 15.5001 24C16.1646 24 16.504 23.6122 16.752 23.3295C16.9703 23.0805 17.0572 23 17.2525 23C17.4473 23 17.5342 23.0805 17.7525 23.3295C18.0005 23.6123 18.3398 24 19.0049 24C19.6695 24 20.0225 23.5962 20.2564 23.3291C20.4736 23.0805 20.5606 23 20.7544 23C20.9473 23 21.0337 23.0805 21.251 23.3291C21.4839 23.5962 21.8364 24 22.5 24C22.7764 24 23 23.7764 23 23.5V3H23.5C23.7764 3 24 2.77636 24 2.49998V0.500016C24 0.223641 23.7764 0 23.5 0Z" fill="black"/>
<path d="M23.5 0H0.500016C0.223641 0 0 0.223641 0 0.500016V2.50003C0 2.77636 0.223641 3 0.500016 3H1.00003V23.5C0.999984 23.7764 1.22362 24 1.5 24C2.16455 24 2.50392 23.6123 2.75194 23.3296C2.97019 23.0805 3.05709 23 3.25242 23C3.44723 23 3.53414 23.0806 3.75244 23.3296C4.0005 23.6123 4.33983 24 5.00489 24C5.66944 24 6.02245 23.5962 6.25636 23.3291C6.47362 23.0805 6.56058 23 6.75441 23C6.9473 23 7.03369 23.0805 7.251 23.3291C7.48392 23.5962 7.83647 24 8.50003 24C8.67338 24 8.83402 23.9101 8.92533 23.7627C9.01664 23.6152 9.02494 23.4311 8.94731 23.2763L5.55366 16.4892C5.80345 16.4612 6 16.2573 6 16C6 15.7237 5.77636 15.5 5.49998 15.5C5.44969 15.5 5.39391 15.4962 5.34216 15.4954C7.05469 14.1449 8.24517 12.1969 8.63672 10.042L9.91706 3H14.0829L15.3633 10.042C15.7548 12.197 16.9454 14.1451 18.6577 15.4951C18.6052 15.4959 18.5521 15.4999 18.5 15.5C18.2236 15.5 18 15.7241 18 16C18 16.2567 18.196 16.4601 18.4447 16.4888L15.0508 23.2582C15.0054 23.3486 14.9908 23.4687 15.0049 23.5688C15.0391 23.8159 15.2505 24 15.5001 24C16.1646 24 16.504 23.6122 16.752 23.3295C16.9703 23.0805 17.0572 23 17.2525 23C17.4473 23 17.5342 23.0805 17.7525 23.3295C18.0005 23.6123 18.3398 24 19.0049 24C19.6695 24 20.0225 23.5962 20.2564 23.3291C20.4736 23.0805 20.5606 23 20.7544 23C20.9473 23 21.0337 23.0805 21.251 23.3291C21.4839 23.5962 21.8364 24 22.5 24C22.7764 24 23 23.7764 23 23.5V3H23.5C23.7764 3 24 2.77636 24 2.49998V0.500016C24 0.223641 23.7764 0 23.5 0Z" fill="url(#paint0_linear)"/>
<defs>
<linearGradient id="paint0_linear" x1="12" y1="0" x2="12" y2="24" gradientUnits="userSpaceOnUse">
<stop stop-color="#00AF2C"/>
<stop offset="1" stop-color="#009C27"/>
</linearGradient>
</defs>
</svg>
