<svg width="18" height="28" viewBox="0 0 18 28" fill="none" xmlns="http://www.w3.org/2000/svg">
<path d="M12.9108 22.8474V23.8902C12.9108 24.7201 12.2989 25.4104 11.5026 25.5279L11.2445 26.4753C11.1044 26.9894 10.6399 27.3492 10.1017 27.3492H7.5432C7.00497 27.3492 6.54046 26.9894 6.40037 26.4753L6.14968 25.5279C5.34601 25.4031 4.73405 24.7201 4.73405 23.8829V22.84C4.73405 22.2819 5.18381 21.8339 5.74416 21.8339H11.9007C12.4611 21.8412 12.9108 22.2892 12.9108 22.8474ZM17.6517 8.79099C17.6517 11.1631 16.708 13.3149 15.1744 14.8938C14.0094 16.0982 13.2574 17.6331 13.0067 19.2708C12.8961 19.9759 12.2841 20.4973 11.5616 20.4973H6.08333C5.36813 20.4973 4.74879 19.9832 4.64557 19.2782C4.38751 17.6405 3.62808 16.0836 2.46313 14.8865C0.95901 13.3296 0.0226248 11.2145 0.000505406 8.88646C-0.0511064 3.99538 3.85665 0.0369738 8.76714 0.00025389C13.6703 -0.036466 17.6517 3.91459 17.6517 8.79099ZM9.8215 3.46661C9.8215 2.92316 9.37911 2.47517 8.82613 2.47517C5.31652 2.47517 2.45575 5.31729 2.45575 8.82037C2.45575 9.36382 2.89814 9.8118 3.45112 9.8118C3.99673 9.8118 4.44649 9.37117 4.44649 8.82037C4.44649 6.41154 6.41512 4.45805 8.82613 4.45805C9.37911 4.45805 9.8215 4.01741 9.8215 3.46661Z" fill="url(#paint0_linear)"/>
<defs>
<linearGradient id="paint0_linear" x1="8.82587" y1="0" x2="8.82587" y2="27.3492" gradientUnits="userSpaceOnUse">
<stop stop-color="#00AF2C"/>
<stop offset="1" stop-color="#009C27"/>
</linearGradient>
</defs>
</svg>
