<svg width="40" height="40" viewBox="0 0 40 40" fill="none" xmlns="http://www.w3.org/2000/svg">
<rect width="40" height="40" rx="3" fill="url(#paint0_radial)"/>
<path d="M31.9279 15.0525C31.8694 13.7751 31.6666 12.9028 31.3699 12.1396C31.0687 11.3389 30.5963 10.6136 29.9858 10.0142C29.3865 9.40369 28.6611 8.93109 27.8604 8.6297C27.097 8.33325 26.2249 8.13055 24.9475 8.07251C23.6678 8.01392 23.2589 8 20 8C16.7411 8 16.3322 8.01392 15.0525 8.07214C13.7751 8.13055 12.903 8.33344 12.1396 8.63007C11.3389 8.93127 10.6136 9.40369 10.0142 10.0142C9.40369 10.6135 8.93109 11.3387 8.6297 12.1395C8.33325 12.9028 8.13055 13.7751 8.07251 15.0523C8.01392 16.3322 8 16.7409 8 19.9998C8 23.2589 8.01392 23.6678 8.07251 24.9475C8.13074 26.2247 8.33362 27.097 8.63025 27.8604C8.93146 28.6609 9.40387 29.3864 10.0143 29.9857C10.6136 30.5961 11.3391 31.0685 12.1398 31.3698C12.903 31.6666 13.7753 31.8693 15.0527 31.9277C16.3326 31.9861 16.7413 31.9998 20.0002 31.9998C23.2591 31.9998 23.668 31.9861 24.9477 31.9277C26.225 31.8693 27.0972 31.6666 27.8605 31.3698C29.4724 30.7465 30.7466 29.4722 31.3699 27.8604C31.6667 27.097 31.8694 26.2247 31.9279 24.9475C31.9861 23.6676 32 23.2589 32 20C32 16.7409 31.9861 16.3322 31.9279 15.0525ZM29.7678 24.8492C29.7145 26.0192 29.5189 26.6546 29.3547 27.0774C28.9509 28.124 28.1238 28.9511 27.0772 29.3549C26.6544 29.5191 26.019 29.7147 24.849 29.7679C23.5839 29.8258 23.2043 29.8379 20 29.8379C16.7955 29.8379 16.4161 29.8258 15.1508 29.7679C13.981 29.7147 13.3456 29.5191 12.9226 29.3549C12.4015 29.1624 11.93 28.8557 11.5429 28.4571C11.1443 28.07 10.8376 27.5987 10.6451 27.0774C10.4809 26.6546 10.2853 26.0192 10.2321 24.8492C10.1744 23.5839 10.1621 23.2043 10.1621 20.0002C10.1621 16.7958 10.1744 16.4164 10.2321 15.151C10.2855 13.981 10.4809 13.3456 10.6451 12.9228C10.8376 12.4015 11.1445 11.93 11.5429 11.5429C11.93 11.1443 12.4015 10.8376 12.9228 10.6453C13.3456 10.4809 13.981 10.2855 15.151 10.2321C16.4163 10.1744 16.7958 10.1621 20 10.1621H19.9998C23.204 10.1621 23.5836 10.1744 24.849 10.2322C26.019 10.2855 26.6542 10.4811 27.0772 10.6453C27.5983 10.8378 28.0698 11.1445 28.4569 11.5429C28.8555 11.93 29.1622 12.4015 29.3545 12.9228C29.5189 13.3456 29.7145 13.981 29.7678 15.151C29.8254 16.4163 29.8377 16.7958 29.8377 20C29.8377 23.2043 29.8256 23.5837 29.7678 24.8492Z" fill="white"/>
<path d="M19.9998 13.8379C16.5966 13.8379 13.8378 16.5969 13.8378 20.0001C13.8378 23.4033 16.5966 26.1622 19.9998 26.1622C23.4032 26.1622 26.162 23.4033 26.162 20.0001C26.162 16.5969 23.4032 13.8379 19.9998 13.8379ZM19.9998 24.0001C17.7908 23.9999 15.9999 22.2091 16.0001 19.9999C16.0001 17.791 17.7908 16 20 16C22.2092 16.0002 23.9999 17.791 23.9999 19.9999C23.9999 22.2091 22.209 24.0001 19.9998 24.0001Z" fill="white"/>
<path d="M27.8455 13.5944C27.8455 14.3896 27.2008 15.0344 26.4056 15.0344C25.6102 15.0344 24.9655 14.3896 24.9655 13.5944C24.9655 12.799 25.6102 12.1543 26.4056 12.1543C27.2008 12.1543 27.8455 12.799 27.8455 13.5944Z" fill="white"/>
<defs>
<radialGradient id="paint0_radial" cx="0" cy="0" r="1" gradientUnits="userSpaceOnUse" gradientTransform="translate(10.6252 43.0822) rotate(-90) scale(39.6326 36.8711)">
<stop stop-color="#FFDD55"/>
<stop offset="0.1" stop-color="#FFDD55"/>
<stop offset="0.5" stop-color="#FF543E"/>
<stop offset="1" stop-color="#C837AB"/>
</radialGradient>
</defs>
</svg>
