<svg width="24" height="24" viewBox="0 0 24 24" fill="none" xmlns="http://www.w3.org/2000/svg">
<path d="M17.8759 0H6.12402C4.96091 0 4.01465 0.946266 4.01465 2.10938V21.8906C4.01465 23.0537 4.96091 24 6.12402 24H17.8758C19.0389 24 19.9852 23.0537 19.9852 21.8906V2.10938C19.9852 0.946266 19.039 0 17.8759 0ZM11.9999 3.4005C13.282 3.4005 14.3213 4.43981 14.3213 5.72189C14.3213 7.00397 13.282 8.04328 11.9999 8.04328C10.7179 8.04328 9.67855 7.00397 9.67855 5.72189C9.67855 4.43981 10.7179 3.4005 11.9999 3.4005ZM11.9999 20.8822C8.94332 20.8822 6.4566 18.3954 6.4566 15.3389C6.4566 12.2823 8.94332 9.79552 11.9999 9.79552C15.0566 9.79552 17.5433 12.2822 17.5433 15.3389C17.5433 18.3955 15.0566 20.8822 11.9999 20.8822Z" fill="black"/>
<path d="M17.8759 0H6.12402C4.96091 0 4.01465 0.946266 4.01465 2.10938V21.8906C4.01465 23.0537 4.96091 24 6.12402 24H17.8758C19.0389 24 19.9852 23.0537 19.9852 21.8906V2.10938C19.9852 0.946266 19.039 0 17.8759 0ZM11.9999 3.4005C13.282 3.4005 14.3213 4.43981 14.3213 5.72189C14.3213 7.00397 13.282 8.04328 11.9999 8.04328C10.7179 8.04328 9.67855 7.00397 9.67855 5.72189C9.67855 4.43981 10.7179 3.4005 11.9999 3.4005ZM11.9999 20.8822C8.94332 20.8822 6.4566 18.3954 6.4566 15.3389C6.4566 12.2823 8.94332 9.79552 11.9999 9.79552C15.0566 9.79552 17.5433 12.2822 17.5433 15.3389C17.5433 18.3955 15.0566 20.8822 11.9999 20.8822Z" fill="url(#paint0_linear)"/>
<path d="M12 13.0002C10.7105 13.0002 9.66138 14.0494 9.66138 15.3389C9.66138 16.6284 10.7105 17.6775 12 17.6775C13.2896 17.6775 14.3387 16.6284 14.3387 15.3389C14.3387 14.0494 13.2896 13.0002 12 13.0002Z" fill="black"/>
<path d="M12 13.0002C10.7105 13.0002 9.66138 14.0494 9.66138 15.3389C9.66138 16.6284 10.7105 17.6775 12 17.6775C13.2896 17.6775 14.3387 16.6284 14.3387 15.3389C14.3387 14.0494 13.2896 13.0002 12 13.0002Z" fill="url(#paint1_linear)"/>
<defs>
<linearGradient id="paint0_linear" x1="11.9999" y1="0" x2="11.9999" y2="24" gradientUnits="userSpaceOnUse">
<stop stop-color="#00AF2C"/>
<stop offset="1" stop-color="#009C27"/>
</linearGradient>
<linearGradient id="paint1_linear" x1="12" y1="13.0002" x2="12" y2="17.6775" gradientUnits="userSpaceOnUse">
<stop stop-color="#00AF2C"/>
<stop offset="1" stop-color="#009C27"/>
</linearGradient>
</defs>
</svg>
