<svg width="120" height="115" viewBox="0 0 120 115" fill="none" xmlns="http://www.w3.org/2000/svg">
<path d="M58.5007 109.739C44.2506 109.739 31.1254 104.101 21.0003 94.3301C10.8751 84.5588 5.25007 71.4052 5.25007 57.5C5.25007 43.5948 10.8751 30.4412 21.0003 20.6699C31.1254 10.8987 44.2506 5.26144 58.5007 5.26144C65.2508 5.26144 71.6259 6.38889 77.626 9.01961L79.876 4.13399C73.1259 1.50327 66.0008 0 58.5007 0C42.7505 0 28.1254 6.01307 17.2502 16.9118C6.00008 27.8105 0 42.0915 0 57.5C0 72.9085 6.00008 87.1895 17.2502 98.0882C28.1254 108.987 43.1255 115 58.5007 115C74.2509 115 88.8761 108.987 99.7513 98.0882C110.626 87.1895 117.001 72.9085 117.001 57.5V54.8693H111.751V57.5C111.751 71.4052 106.126 84.5588 96.0012 94.3301C85.8761 104.477 72.7509 109.739 58.5007 109.739Z" fill="#01A229"/>
<path d="M58.8742 71.4053L120 11.6504L116.25 7.89221L58.4992 65.0164L45.3741 52.2386L41.624 55.9968L58.8742 71.4053Z" fill="#01A229"/>
</svg>
