<svg width="20" height="20" viewBox="0 0 20 20" fill="none" xmlns="http://www.w3.org/2000/svg">
<g clip-path="url(#clip0)">
<path d="M19.7709 18.6656L14.1282 13.0229C16.6991 9.89499 16.5242 5.25167 13.6028 2.33034C10.495 -0.777432 5.43836 -0.777432 2.33059 2.33034C-0.777187 5.43812 -0.777187 10.4948 2.33059 13.6026C5.25113 16.5231 9.89387 16.7 13.0232 14.128L18.6658 19.7707C18.971 20.0758 19.4657 20.0758 19.7709 19.7707C20.0761 19.4655 20.0761 18.9707 19.7709 18.6656ZM12.4978 12.4975C9.99934 14.9959 5.9341 14.9959 3.43566 12.4975C0.937227 9.99905 0.937227 5.93382 3.43566 3.43538C5.93402 0.937061 9.99926 0.936865 12.4978 3.43538C14.9962 5.93382 14.9962 9.99905 12.4978 12.4975Z" fill="#767676"/>
<path d="M11.7928 7.1858H8.74831V4.14127C8.74831 3.70971 8.39846 3.35986 7.9669 3.35986C7.53534 3.35986 7.1855 3.70971 7.1855 4.14127V7.1858H4.14096C3.7094 7.1858 3.35956 7.53564 3.35956 7.96721C3.35956 8.39877 3.7094 8.74861 4.14096 8.74861H7.1855V11.7931C7.1855 12.2247 7.53534 12.5746 7.9669 12.5746C8.39846 12.5746 8.74831 12.2247 8.74831 11.7931V8.74861H11.7928C12.2244 8.74861 12.5742 8.39877 12.5742 7.96721C12.5742 7.53564 12.2244 7.1858 11.7928 7.1858Z" fill="#767676"/>
</g>
<defs>
<clipPath id="clip0">
<rect width="20" height="20" fill="white"/>
</clipPath>
</defs>
</svg>
